<?xml version="1.0" encoding="UTF-8"?>
<svg width="939px" height="353px" viewBox="0 0 939 353" version="1.1" xmlns="http://www.w3.org/2000/svg" xmlns:xlink="http://www.w3.org/1999/xlink">
    <!-- Generator: Sketch 64 (93537) - https://sketch.com -->
    <title>Screenshot 2020-10-13 at 00.31.34</title>
    <desc>Created with Sketch.</desc>
    <g id="Page-1" stroke="none" stroke-width="1" fill="none" fill-rule="evenodd">
        <g id="Artboard" transform="translate(-14.000000, -10.000000)" fill="#000000" fill-rule="nonzero">
            <g id="Screenshot-2020-10-13-at-00.31.34" transform="translate(484.000000, 188.500000) rotate(1.000000) translate(-484.000000, -188.500000) translate(15.000000, 14.000000)">
                <g id="Group" transform="translate(469.000000, 174.500000) scale(-1, 1) rotate(-180.000000) translate(-469.000000, -174.500000) translate(0.500000, -0.000000)">
                    <path d="M519.93768,348.951692 C518.935814,347.742936 517.933949,342.628966 515.128726,323.567807 C511.421823,298.369885 507.915294,276.891213 505.510817,264.524705 C504.208392,257.272167 500.701863,238.954858 499.599811,233.375982 C492.186006,194.695777 486.275,173.867974 478.761008,160.199728 C474.452987,152.110358 468.541981,145.880613 466.137503,146.717445 C461.027989,148.57707 456.219035,167.638229 450.508402,208.271041 C448.404484,223.148043 447.402619,240.535539 446.901686,271.033394 C446.601127,288.141946 445.899821,303.762798 445.398888,305.622423 C444.196649,309.899562 440.489747,311.945149 433.977621,311.945149 C428.166802,311.945149 423.658407,309.80658 422.856915,306.645217 C421.855049,303.111929 423.157474,237.65312 424.359713,227.3322 C426.864377,206.969303 430.972025,184.188894 434.177995,173.403067 C441.291239,149.134958 450.007469,139.092981 463.833213,139 C475.354666,139 482.76847,146.624464 491.083954,167.359285 C495.391976,177.773187 503.607272,209.479797 506.713055,226.867294 C507.113802,229.470769 508.215854,235.049645 509.117533,239.419764 C510.019212,243.789884 511.121264,249.833666 511.622196,252.902047 C512.123129,255.970429 513.225181,262.66508 514.12686,267.779049 C515.930218,278.564876 517.433016,287.770021 518.635255,295.673428 C521.240105,312.410056 522.84309,323.381845 523.644582,329.611589 C524.145515,333.423821 524.846821,338.537791 525.247567,340.955303 C525.7485,344.302629 525.548127,345.976292 524.245701,347.742936" id="Path"></path>
                    <path d="M25.4295957,343.329539 C23.2269809,341.751881 23.0267431,341.009453 20.5237717,327.831369 C12.7145007,286.441046 12.0136687,226.954059 18.92187,177.48984 C21.1244848,161.71326 22.2257923,156.237858 24.6286449,148.535175 C25.229358,146.740976 25.6965794,144.482759 26.0303089,141.760526 C26.4307843,142.06987 24.5952719,140.677819 20.5237717,137.584372 C14.5135403,133.017915 7.50832009,127.004783 4.50475434,121.343775 C2.40225831,117.353228 0.5,112.991468 0.5,102.783092 C0.5,87.192119 3.60368461,79.3038289 10.9123613,65.847334 C21.024366,47.3794548 35.5416004,38.0991135 56.366323,37.078276 C69.2816557,36.4286521 83.8990091,39.8623784 94.3113703,45.8946002 C96.4138664,47.1010446 98.3161247,48.0290787 98.6164813,48.0290787 C100.118264,48.0290787 110.430507,56.0101722 116.737995,62.0423941 C133.357725,78.0973845 143.970324,99.9061865 150.978644,132.944202 C153.98221,146.864713 156.885657,169.972763 157.786727,186.677378 C158.287321,196.885753 158.687796,199.762659 160.08946,200.783496 C169.700871,208.114966 185.219294,218.508948 185.619769,217.952128 C185.920126,217.488111 185.820007,213.497564 185.319413,208.950197 C184.518462,200.319479 185.319413,188.440642 187.32179,182.13001 C190.926069,170.15837 197.734151,158.46514 203.440926,154.474593 C217.858042,144.266218 233.176227,153.453756 240.685141,177.025823 C245.090371,190.482318 247.292986,214.054384 245.490847,228.0677 C244.28942,237.255238 244.790015,238.183272 251.598097,240.132143 C253.900831,240.781767 256.203564,241.709801 256.704159,242.173819 C257.304872,242.545032 258.806655,242.916246 260.1082,242.916246 C262.310815,242.916246 262.511052,242.637836 262.010458,239.48252 C257.104634,208.857393 259.307249,180.552352 268.217827,159.393174 C270.820918,153.360952 273.424008,151.040867 277.729119,151.040867 C282.234468,151.040867 283.636132,153.639363 282.835181,160.414012 C282.134349,165.703806 282.9353,172.292849 285.838747,185.842147 C292.746948,217.766521 307.764777,245.978758 321.981654,253.681442 C325.786171,255.81592 326.687241,256.001527 327.788548,254.887886 C330.792114,252.01098 331.593065,246.349972 332.394016,223.427529 C332.89461,210.435051 333.595442,196.700146 333.995917,192.895206 C335.197344,179.717122 340.403524,169.508746 347.81232,165.79661 C352.017312,163.754935 352.618025,163.754935 357.023255,164.775772 C362.629911,166.167823 370.138825,171.086404 374.443936,176.097789 C377.247264,179.345908 378.448691,183.522062 376.646551,183.522062 C376.246076,183.522062 373.442748,181.016369 370.539301,177.861053 C364.832526,171.828832 358.725275,167.745481 355.421353,167.745481 C352.818263,167.745481 350.916004,170.715191 348.913627,177.48984 C347.612082,182.222814 347.411844,187.141395 348.012558,211.084675 C348.613271,232.800674 348.413033,240.03934 347.411844,243.56587 C344.808754,252.289391 341.304594,257.022365 335.4977,259.249646 C322.982843,264.168227 311.068699,255.351903 298.453723,232.058247 C295.650395,226.861255 293.347661,222.035478 293.347661,221.293051 C293.347661,220.643427 292.947185,219.715393 292.54671,219.251376 C292.046116,218.694555 290.444214,214.611205 288.942431,209.971034 C287.340529,205.423667 285.738628,200.690693 285.238033,199.484249 C284.737439,198.277804 284.336964,196.700146 284.336964,195.957719 C284.336964,195.122488 283.536013,192.98801 282.634943,191.224745 C281.13316,188.255036 280.932922,188.162232 280.23209,189.73989 C279.230902,192.245582 280.932922,222.499495 282.9353,239.018502 C284.336964,251.17575 284.336964,252.474997 282.9353,254.516672 C281.533636,256.465544 280.532447,256.836758 276.027098,256.836758 C269.819729,256.836758 266.716045,255.166296 264.713667,250.618929 C263.912717,248.948468 262.210696,247.092399 261.00927,246.721186 C259.807843,246.257169 256.804278,245.143528 254.301306,244.308297 C251.798335,243.380263 248.794769,242.266622 247.593343,241.802605 C244.890133,240.59616 243.688707,241.338588 242.987875,244.493904 C239.183358,262.683373 229.071354,277.253509 216.656615,282.543303 C209.347939,285.605816 203.641164,286.069833 196.632844,284.213765 C180.814064,280.037611 170.501822,269.736432 165.595998,253.310228 C163.493502,246.442776 164.594809,241.709801 169.100158,237.255238 C171.803367,234.656742 180.013113,230.851802 185.51965,229.552554 C187.421909,229.088537 188.22286,228.438913 188.022622,227.418076 C187.522028,224.912384 162.492313,206.722915 159.588866,206.722915 C158.888034,206.722915 158.287321,210.620658 157.786727,218.880162 C156.084706,248.20604 148.475673,266.67392 135.660459,272.891748 C129.352971,275.954261 119.140847,275.675851 112.232646,272.149321 C106.425752,269.179612 96.3137475,259.62086 90.8072103,251.918177 C78.292353,234.471135 65.0766637,206.351701 56.6666796,179.345908 C55.2650156,174.798541 53.6631138,169.787156 53.1625195,168.209498 C52.6619252,166.724644 51.4604989,162.641294 50.5594292,159.114764 C48.6571709,152.711328 46.5546749,149.741619 45.1530109,151.783294 C44.7525354,152.432918 43.8514657,157.351499 43.1506337,162.919704 C42.5499205,168.395105 41.548732,175.540968 41.0481377,178.881891 C38.7454039,194.008847 37.8443342,221.571461 38.3449285,255.444707 C38.9456416,288.761132 39.4462359,298.876704 41.9492074,318.551027 C44.5522977,338.874975 44.5522977,340.174223 42.0493262,342.679915 C40.0469491,344.628786 38.8455228,345 33.6393421,345 M210.449246,280.594431 C221.862796,276.789492 232.07492,263.054586 237.381219,244.4011 C239.08324,238.183272 238.682764,237.997665 220.260894,233.543101 C210.749603,231.315819 210.249008,231.315819 210.249008,233.914315 C210.249008,237.904862 206.644729,240.132143 200.237123,240.132143 C197.033319,240.132143 195.431417,239.575323 193.328921,237.533648 C191.827138,236.141597 190.325356,234.378332 190.024999,233.635905 C189.624524,232.42946 189.02381,232.42946 185.619769,233.543101 C179.512519,235.491973 175.507765,238.740092 173.705625,243.380263 C168.499444,255.908724 182.816441,277.439115 198.73534,281.058449 M125.748692,268.158774 C130.254041,264.632244 132.95725,258.600023 136.261172,244.308297 C138.363668,235.584776 140.165808,200.319479 138.764143,195.308095 C138.363668,193.54483 136.060934,191.781565 129.853565,188.440642 C119.341085,182.686831 104.923969,175.819378 89.1051897,169.137533 C82.1969885,166.260627 72.7858158,162.177277 68.2804672,160.228405 C59.7703642,156.516268 57.067155,155.866645 57.067155,157.537106 C57.067155,161.156439 66.7786843,191.039138 72.5855781,205.330864 C84.8000788,235.120759 102.120641,259.249646 117.13847,267.416347 M240.585023,226.211631 C242.086805,211.827102 240.484904,194.287257 236.480149,179.624318 C233.276346,168.116695 221.562439,153.639363 216.756734,155.309824 C211.049959,157.351499 205.042828,179.995532 205.142947,199.298642 C205.142947,211.084675 207.245443,225.654811 209.047582,227.325272 C209.548176,227.78929 213.152455,228.717324 217.15721,229.459751 C221.061845,230.294982 226.668501,231.687033 229.571948,232.615067 C232.475395,233.543101 235.879436,234.285528 237.2811,234.192725 M138.16343,181.387583 C138.16343,176.376199 136.161053,158.093926 133.157487,137.120355 C132.256418,130.252903 128.451901,112.805861 127.250475,109.279331 C126.74988,107.980083 125.548454,104.453554 124.647384,101.391041 C122.845245,95.730033 121.043106,91.6466828 116.337519,82.3663415 C108.628367,67.424992 96.4138664,54.8037279 82.1969885,47.2866514 C66.5784466,38.9343443 46.7549126,39.6767716 34.0398176,48.9571129 C18.92187,60.000719 6.30689379,91.8322896 9.91117269,109.928955 C11.6131933,118.559673 15.1173533,124.870305 21.1244848,130.160099 C23.861067,132.572988 26.1638007,134.119711 28.0326861,134.80027 C29.1006206,132.882333 29.7013337,131.614019 29.8348255,130.99533 C30.5356575,127.097587 36.2424325,111.506613 37.6440965,109.464938 C39.5463548,106.680836 43.651228,105.288784 47.7561012,106.031212 C51.8609744,106.680836 52.4616875,108.536904 50.7596669,115.404356 C49.3580029,120.879758 49.7584783,125.241518 52.9622818,139.904457 C55.2650156,150.020029 53.6631138,148.627978 71.6845083,156.701875 C80.6952056,160.692422 88.3042388,164.033345 88.6045954,164.033345 C88.8048331,164.033345 95.7130344,167.003054 103.822662,170.715191 C117.238589,176.747412 124.847622,180.552352 133.658082,185.470933 C135.360102,186.306164 136.962004,187.141395 137.462598,187.141395" id="Shape"></path>
                    <path d="M545.917251,265.865033 C538.93577,264.743018 531.463486,258.971714 527.659011,254.797743 C520.550648,247.00633 519.048881,238.843898 523.654299,233.278603 C525.58991,230.990649 530.752699,227.977935 539.142668,224.24046 C539.142668,224.24046 538.919023,221.50237 538.471731,216.02619 C537.800794,207.811919 536.969965,187.828697 538.872203,181.892382 C543.07715,168.535675 551.687279,161.393547 563.601296,161.393547 C571.10951,161.393547 576.911551,164.038173 581.72119,170.006105 C585.31308,174.463021 588.35148,180.773433 591.133687,189.22002 C593.436396,196.454903 594.637809,208.234777 594.037102,218.994347 L593.436396,229.846672 L596.940518,231.423505 C598.942874,232.258299 601.045347,232.722074 601.746172,232.536564 C602.647232,232.165545 603.247939,228.362593 603.64841,219.643631 C604.449352,204.617336 606.451708,195.527354 610.957008,186.901148 C614.96172,179.01698 618.966431,176.141578 626.875736,175.492293 C636.487044,174.750254 643.495289,179.388 651.004122,191.538893 L653.907538,196.176639 L654.207892,189.683795 C654.908716,177.532901 651.504711,142.5643 648.300942,128.465553 C643.995878,109.079776 632.682568,88.3954311 619.366902,75.1314787 C616.563604,72.3488313 616.063015,72.1633215 611.557715,72.8126059 C596.640165,74.8532139 569.808598,80.4185086 546.280919,86.4475779 C544.378681,86.9113525 541.174912,87.6533918 539.272674,88.1171663 C537.370436,88.488186 531.263251,89.9722646 525.756773,91.3635882 C520.250294,92.7549119 514.14311,94.1462356 512.240872,94.5172552 C510.338634,94.9810298 503.130153,96.5578633 496.222026,98.1346968 C460.78033,106.297129 431.145465,110.378345 407.617786,110.378345 C383.989988,110.378345 369.973498,108.430492 350.150177,102.308668 C335.132509,97.7636772 326.722615,93.4041963 318.412839,85.7982935 C309.001767,77.1720867 307.5,74.1111746 307.5,63.5371147 C307.5,56.1167217 307.900471,54.5398882 310.503534,49.8093877 C317.511779,36.8237 333.830978,23.3742378 353.053592,14.6552761 C365.267962,9.08998137 365.568316,8.99722646 374.078327,6.58559875 C390.797998,1.76234333 406.015901,0 430.144287,0 C452.370436,0 471.092462,1.76234333 493.218492,5.93631436 C535.267962,14.0059917 588.330389,36.7309451 619.366902,60.1051829 L624.87338,64.186399 L631.381037,63.6298696 C654.808598,61.4965066 680.03828,62.2385459 694.855713,65.3922129 C718.183157,70.4009781 732.5,81.1605479 732.5,93.5897061 C732.5,101.659383 723.789753,102.586933 721.887515,94.79552 C720.385748,88.488186 718.984099,85.7055386 715.279741,81.9953421 C710.373969,77.0793318 703.966431,73.9256648 693.253828,71.2357724 C685.644876,69.2879192 682.841578,69.1024094 660.214959,69.1024094 C642.894582,69.1024094 635.185512,69.3806741 634.284452,70.2154683 C633.48351,70.9575076 634.885159,73.1836255 639.991166,79.1199399 C654.308009,95.4448044 663.31861,113.160993 667.82391,133.567073 C671.02768,148.129594 672.529446,159.909468 674.431684,184.582275 C675.53298,197.938982 676.43404,207.028963 678.936985,227.713309 C682.441107,257.487635 682.441107,258.13692 676.634276,259.435489 C671.127797,260.734057 666.322144,259.064469 664.319788,254.983253 C662.617786,251.644076 660.315077,240.327977 658.312721,224.930661 C657.211425,216.860984 656.410483,214.449356 652.105418,206.379679 C642.494111,188.292471 633.583628,178.182186 629.578916,180.593814 C624.87338,183.283706 622.971143,199.237551 623.571849,230.310446 C624.172556,256.652841 624.272674,256.374577 618.065371,257.394881 C613.1596,258.32243 608.053592,256.745596 606.651943,254.055704 C605.951119,252.757135 605.050059,248.583164 604.749706,244.780213 C604.048881,237.545329 602.446996,234.669927 599.14311,234.669927 C598.041814,234.669927 596.339812,234.206153 595.238516,233.649623 C593.536514,232.814829 593.035925,233.185849 591.233804,237.17431 C586.328033,247.841125 584.626031,250.252752 578.919317,255.539782 C572.411661,261.476097 566.604829,264.629764 559.296231,266.206597 C550.899037,266.952142 552.898733,266.987047 545.917251,265.865033 Z M562.299764,260.363038 C568.80742,257.58039 577.217314,249.232448 581.622497,241.348281 C583.538922,237.951697 585.008355,234.522206 586.030796,231.05981 C584.120799,230.483442 582.551249,230.079062 581.322144,229.846672 C571.010012,227.898819 568.329084,226.623542 566.004122,226.321985 C563.679161,226.020428 561.298587,226.22923 561.298587,227.249534 C561.298587,227.620554 562.299764,230.217691 563.601296,232.907584 C564.902827,235.690231 565.803887,238.565633 565.603651,239.400428 C565.403416,240.327977 563.300942,241.441036 560.797998,242.09032 C556.893404,243.110624 555.992344,243.017869 551.987633,241.255526 C548.383392,239.678692 546.881625,238.101859 544.378681,233.742378 C542.576561,230.681466 540.574205,228.177083 539.87338,228.177083 C539.072438,228.177083 536.669611,229.753917 534.366902,231.70177 C530.962898,234.391662 529.96172,235.968496 529.561249,239.029408 C528.459953,247.099085 536.518402,260.114913 548.984099,262.125381 C553.96839,263.005109 557.485309,262.066345 562.299764,260.363038 Z M588.178837,222.596009 C589.180014,216.75245 590.396687,210.132818 588.106497,198.091014 C585.763949,189.048754 584.258554,186.041339 583.351592,184.005884 C579.983018,176.445943 578.403102,173.821954 573.597449,169.833493 C570.994386,167.792885 567.659446,166.229311 566.204358,166.031292 C563.707615,165.691517 559.696702,171.132812 558.295053,176.234333 C555.892226,184.396765 557.293875,216.304455 560.297409,221.591485 C561.198469,223.075563 582.578365,228.254502 586.583077,228.068993 M418.630742,104.349276 C423.035925,103.978256 432.046525,102.865197 438.654299,101.844893 C445.262073,100.824589 452.670789,99.6187754 455.173734,99.2477558 C465.485866,97.6709222 505.332744,88.7664507 533.265607,81.8098323 C563.601296,74.2039295 587.629564,69.1024094 601.646054,67.2473111 C604.249117,66.8762915 606.651943,66.1342522 606.952297,65.6704776 C607.853357,64.3719089 603.64841,60.8472222 593.336278,54.1688686 C583.724971,47.9542895 585.226737,48.7890837 569.608363,40.6266514 C540.974676,25.6931106 510.93934,15.1190506 481.805065,9.83202066 C463.583628,6.49284383 457.17609,6.02906927 430.144287,6.02906927 C400.008834,6.02906927 394.202002,6.67835366 377.282097,11.9653836 C343.942874,22.3539338 318.713192,43.5020537 317.211425,62.2385459 C315.809776,80.4185086 335.132509,94.6100102 371.575383,102.123158 C377.282097,103.328972 405.61543,105.647845 408.618963,105.276825" id="Shape"></path>
                    <path d="M845.149601,262.442816 C842.252592,261.885632 838.856099,257.892478 838.856099,255.106557 C838.856099,252.134908 836.858162,252.227772 831.763422,255.385149 C828.267032,257.521022 826.668682,257.892478 820.075489,257.892478 C813.881884,257.892478 811.484359,257.428158 807.888072,255.756605 C796.599727,250.277627 785.910763,234.676468 782.913857,219.446766 C780.816023,208.860266 779.916951,206.167209 773.92314,194.837796 C767.929328,183.415519 763.433969,178.122269 760.736754,179.05091 C759.038508,179.700958 756.640983,184.34416 754.842839,190.658914 C752.545212,198.738086 753.644077,228.547442 757.04057,250.741947 C758.439126,259.656895 757.540055,261.235583 751.046759,261.235583 C745.352638,261.235583 743.654391,259.842623 741.057073,253.249276 C739.159032,248.327482 738.859342,248.234618 731.966458,250.556219 C717.181723,255.663741 704.494822,251.577723 695.604001,239.041078 C685.014934,224.182832 682.517512,205.610025 689.210602,191.587555 C693.306373,183.044063 699.699772,179.51523 708.99018,180.722462 C715.783167,181.558239 722.276463,187.780129 728.969553,199.945318 C734.963364,210.624683 735.263055,210.717547 736.561714,200.966823 C737.860373,190.937507 742.255835,181.743967 747.350575,178.122269 C752.844902,174.22198 759.038508,172.736155 764.033351,173.943388 C769.827368,175.429212 773.623449,179.422366 778.917983,189.265954 L783.213548,197.345125 L785.311382,194.187748 C790.406122,186.665761 794.501893,184.158432 801.894261,184.158432 C805.09096,184.158432 807.688279,184.80848 809.88601,186.294305 C814.081678,188.894498 821.074458,198.273766 827.967341,210.717547 C830.86435,215.917933 833.661462,220.00395 834.160947,219.725358 C835.459606,218.982446 833.961153,187.687265 832.4627,186.294305 C831.463731,185.2728 822.173323,180.629598 807.388588,173.664795 C781.515301,161.499606 769.727472,150.54165 762.934485,132.15457 C757.839745,118.782149 761.436032,101.78803 771.026131,93.0588105 C778.118808,86.6511919 783.713032,84.515319 794.302099,84.0509988 C813.981781,83.2152225 830.764453,92.6873544 840.554346,109.867201 C848.146507,123.332487 851.24331,139.305101 852.741763,173.014747 L853.640835,192.051875 L858.435884,195.766437 C861.033202,197.809445 866.227839,202.081191 869.824126,205.331432 C873.52031,208.48881 876.816906,210.810411 877.216494,210.438955 C877.616081,210.067498 878.714947,208.02449 879.713915,205.981481 C882.41113,200.316774 887.306077,195.673572 893.299888,192.980515 C897.795247,191.030371 900.092875,190.658914 907.185552,190.658914 C920.771525,190.658914 928.963067,194.93066 934.457395,204.867112 C938.952753,213.132012 935.356466,215.546477 930.16183,207.838761 C924.068121,198.83095 920.371937,195.673572 914.278229,194.46634 C909.183489,193.444836 908.384314,193.444836 904.38844,195.302116 C898.494525,197.902309 894.998135,203.102696 893.000198,212.203371 C891.00226,221.025455 891.301951,221.582639 899.893081,225.761521 C903.389471,227.525937 906.486274,229.290354 906.586171,229.754674 C906.785964,230.218995 907.485242,230.590451 908.18452,230.590451 C910.382251,230.590451 920.571731,240.805495 923.16905,245.634425 C929.462552,257.24243 923.968224,264.114368 909.583076,262.721408 C899.093906,261.699903 890.003292,255.663741 883.509996,245.355833 C879.913709,239.691126 876.816906,230.311859 876.816906,225.297201 C876.816906,219.446766 874.818969,215.917933 868.72526,210.624683 C859.634646,202.824103 855.438978,199.945318 854.440009,200.873959 C853.640835,201.616871 855.139287,235.047925 856.33805,244.520056 C856.537843,246.284473 856.537843,250.741947 856.138256,254.456509 L855.538875,261.235583 L851.942588,262.164224 C849.944651,262.628544 848.146507,263 847.846817,263 M915.876579,254.085052 C917.474928,250.091899 914.478023,242.941368 908.584108,236.998069 C904.788027,233.09778 895.79731,227.711666 894.498651,228.454578 C891.501745,230.218995 899.193803,245.913017 906.386377,252.599228 M826.968373,247.863162 C829.965279,245.170105 834.860225,236.440885 834.860225,233.933556 C834.860225,230.404723 815.480234,199.852454 808.58735,192.516195 C804.491579,188.151585 802.793332,187.872993 800.295911,191.401827 C798.697561,193.5377 798.397871,195.766437 798.397871,205.51716 C798.397871,212.574827 798.897355,218.889582 799.796427,221.768367 C803.093023,232.912052 813.981781,249.163258 819.276314,251.020539 M729.968521,241.084087 L737.260992,237.648118 L736.661611,231.333363 C736.06223,224.647152 735.063261,222.604143 725.173472,205.610025 C719.079763,195.209252 710.988118,186.015713 707.891315,186.015713 C703.495853,186.015713 701.298122,206.167209 704.594719,217.960942 C706.792449,226.040113 712.386674,236.440885 716.882032,240.805495 C718.979866,242.848504 721.177597,244.520056 721.677082,244.520056 M833.861256,171.714651 C833.861256,160.19951 832.063113,138.283597 830.264969,128.440009 C825.969404,104.481087 817.078584,92.5944903 799.596633,87.5798323 C796.699624,86.7440559 794.701687,86.7440559 790.605915,87.6726963 C781.215611,89.9014332 775.121902,94.5446351 770.226956,103.366719 C767.729534,108.009921 767.429844,109.402881 767.429844,118.224965 C767.429844,129.368649 768.528709,133.361803 774.122933,142.462479 C778.818086,149.984466 786.01066,156.484948 796.999315,162.985431 C810.884978,171.157466 830.56466,180.44387 832.662494,179.793822" id="Shape"></path>
                </g>
            </g>
        </g>
    </g>
</svg>